<svg width="98" height="110" viewBox="0 0 98 110" fill="none" xmlns="http://www.w3.org/2000/svg">
<g filter="url(#filter0_b_2269_20887)">
<mask id="path-1-outside-1_2269_20887" maskUnits="userSpaceOnUse" x="0" y="0" width="98" height="110" fill="black">
<rect fill="white" width="98" height="110"/>
<path d="M44.5128 2.73648C47.4424 1.04337 51.0531 1.04337 53.9827 2.73648L92.3659 24.9194C95.2916 26.6102 97.0937 29.733 97.0937 33.1123V77.4945C97.0937 80.8738 95.2916 83.9965 92.3659 85.6874L53.9827 107.87C51.0531 109.563 47.4424 109.563 44.5128 107.87L6.12959 85.6874C3.20382 83.9965 1.40179 80.8738 1.40179 77.4945V33.1123C1.40179 29.733 3.20382 26.6102 6.12959 24.9194L44.5128 2.73648Z"/>
</mask>
<path d="M44.5128 2.73648C47.4424 1.04337 51.0531 1.04337 53.9827 2.73648L92.3659 24.9194C95.2916 26.6102 97.0937 29.733 97.0937 33.1123V77.4945C97.0937 80.8738 95.2916 83.9965 92.3659 85.6874L53.9827 107.87C51.0531 109.563 47.4424 109.563 44.5128 107.87L6.12959 85.6874C3.20382 83.9965 1.40179 80.8738 1.40179 77.4945V33.1123C1.40179 29.733 3.20382 26.6102 6.12959 24.9194L44.5128 2.73648Z" fill="url(#paint0_linear_2269_20887)" fill-opacity="0.1"/>
<path d="M6.12959 24.9194L6.42552 25.4314L6.12959 24.9194ZM6.12959 85.6874L5.83366 86.1995L6.12959 85.6874ZM53.9827 107.87L53.6867 107.358L53.9827 107.87ZM44.5128 107.87L44.8087 107.358L44.5128 107.87ZM92.3659 85.6874L92.6618 86.1995L92.3659 85.6874ZM92.3659 24.9194L92.0699 25.4314L92.3659 24.9194ZM53.9827 2.73648L54.2786 2.22442L53.9827 2.73648ZM44.5128 2.73648L44.2168 2.22442L44.5128 2.73648ZM53.6867 3.24853L92.0699 25.4314L92.6618 24.4073L54.2786 2.22442L53.6867 3.24853ZM96.5022 33.1123V77.4945H97.6851V33.1123H96.5022ZM92.0699 85.1754L53.6867 107.358L54.2786 108.382L92.6618 86.1995L92.0699 85.1754ZM44.8087 107.358L6.42552 85.1754L5.83366 86.1995L44.2168 108.382L44.8087 107.358ZM1.99321 77.4945V33.1123H0.810369V77.4945H1.99321ZM6.42552 25.4314L44.8087 3.24853L44.2168 2.22442L5.83365 24.4073L6.42552 25.4314ZM1.99321 33.1123C1.99321 29.9442 3.68261 27.0166 6.42552 25.4314L5.83365 24.4073C2.72502 26.2039 0.810369 29.5218 0.810369 33.1123H1.99321ZM6.42552 85.1754C3.68262 83.5902 1.99321 80.6626 1.99321 77.4945H0.810369C0.810369 81.085 2.72503 84.4029 5.83366 86.1995L6.42552 85.1754ZM53.6867 107.358C50.9402 108.946 47.5552 108.946 44.8087 107.358L44.2168 108.382C47.3295 110.181 51.1659 110.181 54.2786 108.382L53.6867 107.358ZM96.5022 77.4945C96.5022 80.6626 94.8128 83.5902 92.0699 85.1754L92.6618 86.1995C95.7704 84.4029 97.6851 81.085 97.6851 77.4945H96.5022ZM92.0699 25.4314C94.8128 27.0166 96.5022 29.9442 96.5022 33.1123H97.6851C97.6851 29.5218 95.7704 26.2039 92.6618 24.4073L92.0699 25.4314ZM54.2786 2.22442C51.1659 0.425491 47.3295 0.425493 44.2168 2.22442L44.8087 3.24853C47.5552 1.66125 50.9402 1.66124 53.6867 3.24853L54.2786 2.22442Z" fill="#D4D4EB" fill-opacity="0.5" mask="url(#path-1-outside-1_2269_20887)"/>
</g>
<defs>
<filter id="filter0_b_2269_20887" x="-3.92082" y="-3.85637" width="106.337" height="118.319" filterUnits="userSpaceOnUse" color-interpolation-filters="sRGB">
<feFlood flood-opacity="0" result="BackgroundImageFix"/>
<feGaussianBlur in="BackgroundImageFix" stdDeviation="2.36568"/>
<feComposite in2="SourceAlpha" operator="in" result="effect1_backgroundBlur_2269_20887"/>
<feBlend mode="normal" in="SourceGraphic" in2="effect1_backgroundBlur_2269_20887" result="shape"/>
</filter>
<linearGradient id="paint0_linear_2269_20887" x1="-323.538" y1="-1.05642e-08" x2="-323.538" y2="74.2369" gradientUnits="userSpaceOnUse">
<stop stop-color="#8585C7"/>
<stop offset="1" stop-color="#404583"/>
</linearGradient>
</defs>
</svg>
