<svg width="24" height="24" viewBox="0 0 24 24" fill="none" xmlns="http://www.w3.org/2000/svg">
<path d="M22.8698 12.0016C22.8698 18.0043 18.0028 22.8677 12.0001 22.8677C5.99739 22.8677 1.13037 18.0043 1.13037 12.0016C1.13037 5.99976 5.99739 1.13184 12.0001 1.13184C18.0028 1.13184 22.8698 5.99931 22.8698 12.0016Z" fill="#F9B938"/>
<path d="M22.8686 12.0008C22.8686 18.0031 18.0034 22.8683 12.0007 22.8683C10.4602 22.8706 8.93699 22.5441 7.53277 21.9106C6.12856 21.2772 4.87571 20.3513 3.85791 19.195C5.83932 20.9445 8.39289 21.9078 11.0362 21.9029C17.0384 21.9029 21.9041 17.0381 21.9041 11.0359C21.9041 8.28446 20.8798 5.77216 19.1839 3.85352C20.3439 4.86989 21.2729 6.12278 21.9084 7.52798C22.544 8.93318 22.8714 10.4586 22.8686 12.0008Z" fill="#E5A320"/>
<path opacity="0.3" d="M3.45322 8.24067C3.41887 8.22329 3.38827 8.19931 3.36319 8.1701C3.3381 8.14089 3.31902 8.10702 3.30704 8.07044C3.29505 8.03385 3.2904 7.99526 3.29334 7.95687C3.29627 7.91848 3.30675 7.88104 3.32417 7.84671C4.31939 5.89189 5.92294 4.31345 7.89322 3.3492C7.92776 3.33229 7.96529 3.32237 8.00367 3.32001C8.04205 3.31764 8.08052 3.32288 8.11687 3.33541C8.15322 3.34795 8.18674 3.36754 8.2155 3.39307C8.24426 3.41859 8.2677 3.44954 8.28447 3.48414C8.30138 3.51871 8.31131 3.55628 8.31368 3.59469C8.31605 3.6331 8.31082 3.67161 8.29828 3.70799C8.28575 3.74438 8.26616 3.77794 8.24063 3.80674C8.2151 3.83554 8.18414 3.85902 8.14952 3.87584C6.29416 4.78421 4.78411 6.27074 3.84673 8.11161C3.82935 8.14597 3.80537 8.17656 3.77616 8.20165C3.74695 8.22673 3.71309 8.24581 3.6765 8.25779C3.63991 8.26978 3.60132 8.27444 3.56293 8.2715C3.52454 8.26856 3.48756 8.25808 3.45322 8.24067ZM9.74258 2.96384C9.73369 2.9264 9.73226 2.88758 9.73837 2.8496C9.74448 2.81161 9.75802 2.7752 9.7782 2.74244C9.79838 2.70969 9.82482 2.68123 9.856 2.65869C9.88719 2.63615 9.92251 2.61997 9.95994 2.61108C10.4724 2.49033 10.9935 2.40993 11.5186 2.37063C11.5958 2.36609 11.6718 2.39183 11.7304 2.44238C11.789 2.49294 11.8256 2.56434 11.8324 2.64142C11.838 2.71885 11.8127 2.79535 11.762 2.85417C11.7114 2.91299 11.6395 2.94933 11.5621 2.95523C11.0676 2.99237 10.574 3.06844 10.0949 3.1812C10.0575 3.19008 10.0187 3.19151 9.98073 3.18539C9.94277 3.17927 9.9064 3.16573 9.87368 3.14555C9.84096 3.12536 9.81254 3.09892 9.79004 3.06774C9.76755 3.03656 9.75142 3.00125 9.74258 2.96384Z" fill="white"/>
<path d="M20.0298 12.0034C20.0298 13.3238 19.7106 14.5687 19.1409 15.6681C17.8091 18.2552 15.1094 20.0293 11.9998 20.0293C8.89382 20.0293 6.19042 18.2552 4.85865 15.6681C4.27226 14.5357 3.96735 13.2786 3.96974 12.0034C3.96974 7.5729 7.57291 3.96973 11.9998 3.96973C16.4303 3.96973 20.0298 7.57335 20.0298 12.0034Z" fill="#F7F363"/>
<path d="M18.1062 6.79629C16.6587 5.55193 14.812 4.86938 12.9032 4.87312C8.47631 4.87312 4.87314 8.47629 4.87314 12.9063C4.87314 14.2272 5.19238 15.4721 5.76204 16.5715C6.04005 17.1162 6.38094 17.6264 6.77774 18.0917C5.98836 17.4146 5.33679 16.5917 4.85865 15.6681C4.27226 14.5357 3.96735 13.2786 3.96974 12.0034C3.96974 7.5729 7.57291 3.96973 11.9998 3.96973C14.4455 3.96973 16.6363 5.0692 18.1062 6.79629Z" fill="#EDD318"/>
<path d="M12.9179 8.07154L13.8081 9.87562L15.7988 10.165C16.6383 10.2872 16.9739 11.3188 16.3662 11.9115L14.9257 13.3153L15.2654 15.2983C15.4094 16.1346 14.5313 16.7722 13.7801 16.3774L11.9995 15.4414L10.219 16.3774C9.46777 16.7722 8.59019 16.1346 8.73373 15.2983L9.07336 13.3153L7.63336 11.9115C7.02521 11.3188 7.36075 10.2868 8.2003 10.165L10.1914 9.87562L11.0812 8.07154C11.4571 7.31079 12.542 7.31079 12.9179 8.07154Z" fill="#F9B938"/>
<path opacity="0.4" d="M12.2245 9.22612C12.2287 9.29526 12.2057 9.36331 12.1603 9.41565C12.1149 9.46798 12.0508 9.50041 11.9817 9.50597C11.9293 9.50974 11.8793 9.53003 11.8391 9.56394C11.8154 9.58477 11.7958 9.60979 11.7811 9.63775L11.2477 10.7205C11.1926 10.8329 11.1109 10.9302 11.0097 11.0038C10.9084 11.0775 10.7907 11.1252 10.6667 11.143L9.47307 11.3173C9.4279 11.3218 9.38514 11.3398 9.35033 11.369C9.31553 11.3982 9.29029 11.4371 9.2779 11.4808C9.26334 11.5234 9.26106 11.5693 9.27131 11.6132C9.28155 11.657 9.30392 11.6971 9.33586 11.7289L10.1917 12.5635C10.2418 12.6127 10.2705 12.6797 10.2714 12.7499C10.2723 12.8202 10.2455 12.8879 10.1967 12.9384C10.1473 12.9882 10.0804 13.0166 10.0103 13.0176C9.94025 13.0186 9.87255 12.9921 9.82175 12.9439L9.00847 12.141C8.99382 12.1336 8.98122 12.1227 8.97179 12.1093C8.86646 12.01 8.79199 11.8824 8.7573 11.7419C8.7226 11.6013 8.72915 11.4538 8.77617 11.3168C8.81966 11.179 8.90124 11.0563 9.0115 10.9629C9.12175 10.8695 9.25618 10.8091 9.39926 10.7888L10.5875 10.6199C10.6271 10.6138 10.6646 10.5981 10.6968 10.5742C10.729 10.5503 10.7549 10.5189 10.7722 10.4827L11.3057 9.40544C11.3427 9.33033 11.3929 9.2624 11.4538 9.20484C11.4642 9.18899 11.4746 9.17858 11.4904 9.16273C11.6172 9.05676 11.7703 8.99382 11.9446 8.98295C12.0818 8.9671 12.2141 9.07805 12.2245 9.22612Z" fill="white"/>
<path d="M16.3648 11.914L14.923 13.3132L15.2662 15.2989C15.4084 16.1339 14.5313 16.7697 13.7814 16.3757C13.1873 16.063 12.5925 15.7515 11.9972 15.4411L10.2176 16.3762C9.46818 16.7719 8.5915 16.133 8.73414 15.2984L8.78169 15.0086C8.83263 15.1448 8.91197 15.2686 9.01444 15.3718C9.11691 15.475 9.24016 15.5553 9.37602 15.6072C9.51187 15.6591 9.65721 15.6815 9.80239 15.6729C9.94757 15.6643 10.0893 15.625 10.2181 15.5574L11.7169 14.7659C11.889 14.6749 12.0973 14.6889 12.2558 14.8021L13.1166 15.4162C13.583 15.7485 14.2727 15.4583 14.2944 14.8863C14.296 14.8547 14.2944 14.823 14.2895 14.7917L13.9969 13.0773C13.9829 12.9953 13.989 12.9112 14.0146 12.8321C14.0403 12.753 14.0847 12.6813 14.1441 12.6231L15.388 11.4068C15.763 11.0423 15.7788 10.5088 15.5411 10.1289L15.7996 10.1656C16.6392 10.2874 16.9725 11.3176 16.3648 11.914Z" fill="#E5A320"/>
</svg>
