<svg width="24" height="24" viewBox="0 0 24 24" fill="none" xmlns="http://www.w3.org/2000/svg">
<path d="M20.9508 4.2654C17.2426 4.2654 14.4019 3.1685 11.9997 0.75C9.59772 3.1685 6.75705 4.2654 3.04925 4.2654C3.04925 10.5637 1.79054 19.5859 11.9996 23.25C22.2094 19.5859 20.9508 10.5637 20.9508 4.2654Z" fill="#E8FFE9"/>
<path d="M19.8319 5.03886C16.5873 5.03886 14.1016 4.05165 11.9997 1.875C9.898 4.05165 7.41242 5.03886 4.1681 5.03886C4.1681 10.7073 3.06673 18.8273 11.9996 22.125C20.9332 18.8274 19.8319 10.7074 19.8319 5.03886Z" fill="#49B056"/>
<path d="M19.8319 5.98809C16.5873 5.98809 14.1016 5.05572 11.9997 3C9.898 5.05572 7.41242 5.98809 4.1681 5.98809C4.1681 11.3416 3.06673 19.0105 11.9996 22.125C20.9332 19.0106 19.8319 11.3417 19.8319 5.98809Z" fill="#5FE068"/>
<path fill-rule="evenodd" clip-rule="evenodd" d="M17.6525 8.90226C17.795 9.07963 17.875 9.32018 17.875 9.57099C17.875 9.82181 17.795 10.0624 17.6525 10.2397L11.9577 17.3294C11.8824 17.4231 11.7931 17.4975 11.6947 17.5482C11.5964 17.5989 11.491 17.625 11.3845 17.625C11.2781 17.625 11.1727 17.5989 11.0744 17.5482C10.976 17.4975 10.8867 17.4231 10.8114 17.3294L7.98195 13.8076C7.90939 13.7203 7.8515 13.616 7.81168 13.5006C7.77187 13.3852 7.75091 13.261 7.75003 13.1354C7.74915 13.0099 7.76838 12.8853 7.80658 12.7691C7.84478 12.6528 7.9012 12.5472 7.97254 12.4584C8.04388 12.3696 8.12871 12.2993 8.22208 12.2518C8.31546 12.2042 8.41551 12.1803 8.51639 12.1814C8.61727 12.1825 8.71697 12.2086 8.80967 12.2581C8.90237 12.3077 8.98621 12.3798 9.0563 12.4701L11.3843 15.3683L16.5777 8.90226C16.6483 8.81436 16.732 8.74463 16.8243 8.69706C16.9165 8.64949 17.0153 8.625 17.1151 8.625C17.2149 8.625 17.3138 8.64949 17.406 8.69706C17.4982 8.74463 17.582 8.81436 17.6525 8.90226Z" fill="#49B056"/>
<path fill-rule="evenodd" clip-rule="evenodd" d="M17.6525 7.77726C17.795 7.95463 17.875 8.19518 17.875 8.44599C17.875 8.69681 17.795 8.93735 17.6525 9.11473L11.9577 16.2044C11.8824 16.2981 11.7931 16.3725 11.6947 16.4232C11.5964 16.4739 11.491 16.5 11.3845 16.5C11.2781 16.5 11.1727 16.4739 11.0744 16.4232C10.976 16.3725 10.8867 16.2981 10.8114 16.2044L7.98195 12.6826C7.90939 12.5953 7.8515 12.491 7.81168 12.3756C7.77187 12.2602 7.75091 12.136 7.75003 12.0104C7.74915 11.8849 7.76838 11.7603 7.80658 11.6441C7.84478 11.5278 7.9012 11.4222 7.97254 11.3334C8.04388 11.2446 8.12871 11.1743 8.22208 11.1268C8.31546 11.0792 8.41551 11.0553 8.51639 11.0564C8.61727 11.0575 8.71697 11.0836 8.80967 11.1331C8.90237 11.1827 8.98621 11.2548 9.0563 11.3451L11.3843 14.2433L16.5777 7.77726C16.6483 7.68936 16.732 7.61963 16.8242 7.57206C16.9165 7.52449 17.0153 7.5 17.1151 7.5C17.2149 7.5 17.3138 7.52449 17.406 7.57206C17.4982 7.61963 17.582 7.68936 17.6525 7.77726Z" fill="#F0F1FB"/>
</svg>
