<svg width="9" height="18" viewBox="0 0 9 18" fill="none" xmlns="http://www.w3.org/2000/svg">
<path d="M4.45173 4.09087C4.99422 4.09087 5.51448 3.87537 5.89808 3.49178C6.28168 3.10818 6.49718 2.58792 6.49718 2.04544C6.49718 1.50295 6.28168 0.982688 5.89808 0.599094C5.51448 0.215501 4.99422 0 4.45173 0C3.90924 0 3.38897 0.215501 3.00537 0.599094C2.62178 0.982688 2.40627 1.50295 2.40627 2.04544C2.40627 2.58792 2.62178 3.10818 3.00537 3.49178C3.38897 3.87537 3.90924 4.09087 4.45173 4.09087ZM7.17791 4.85832H1.82209C0.815727 4.85832 0 5.67404 0 6.68039V10.8989C0 11.3399 0.338727 11.7187 0.778909 11.7392C0.889544 11.7445 1.00011 11.7273 1.1039 11.6886C1.20769 11.6499 1.30254 11.5906 1.38271 11.5141C1.46289 11.4377 1.52671 11.3458 1.57031 11.244C1.61391 11.1422 1.63638 11.0326 1.63636 10.9218V7.34475C1.63636 7.23604 1.67955 7.13178 1.75642 7.0549C1.8333 6.97803 1.93756 6.93485 2.04627 6.93485C2.15499 6.93485 2.25925 6.97803 2.33612 7.0549C2.413 7.13178 2.45618 7.23604 2.45618 7.34475V17.1588C2.45618 17.5997 2.79491 17.9786 3.23509 17.999C3.34573 18.0043 3.45629 17.9871 3.56008 17.9485C3.66387 17.9098 3.75872 17.8504 3.8389 17.774C3.91907 17.6976 3.98289 17.6057 4.02649 17.5039C4.07009 17.402 4.09256 17.2924 4.09255 17.1817V12.3937C4.09255 12.2852 4.13565 12.1812 4.21237 12.1044C4.28909 12.0277 4.39314 11.9846 4.50164 11.9846C4.61013 11.9846 4.71419 12.0277 4.79091 12.1044C4.86763 12.1812 4.91073 12.2852 4.91073 12.3937V17.1588C4.91073 17.5997 5.24945 17.9786 5.68964 17.999C5.80034 18.0044 5.91099 17.9873 6.01487 17.9487C6.11876 17.9101 6.21372 17.8507 6.29398 17.7743C6.37424 17.6979 6.43813 17.6059 6.48178 17.5041C6.52543 17.4022 6.54793 17.2925 6.54791 17.1817V7.34311C6.55261 7.2381 6.59764 7.13895 6.67361 7.06631C6.74959 6.99366 6.85065 6.95312 6.95577 6.95312C7.06089 6.95312 7.16196 6.99366 7.23793 7.06631C7.3139 7.13895 7.35893 7.2381 7.36364 7.34311V10.9226C7.36362 11.0334 7.38609 11.143 7.42969 11.2448C7.47329 11.3466 7.53711 11.4385 7.61729 11.515C7.69746 11.5914 7.79232 11.6507 7.8961 11.6894C7.99989 11.7281 8.11046 11.7453 8.22109 11.74C8.66127 11.7187 9 11.3399 9 10.8997V6.68121C9.00011 6.44183 8.95306 6.20476 8.86155 5.98356C8.77004 5.76235 8.63586 5.56134 8.46666 5.39199C8.29746 5.22264 8.09657 5.08828 7.87544 4.99657C7.65432 4.90487 7.4173 4.85843 7.17791 4.85832Z" fill="#00ABAB"/>
</svg>
