<svg width="45" height="56" viewBox="0 0 45 56" fill="none" xmlns="http://www.w3.org/2000/svg">
<path d="M22.2933 0.700388C28.1647 6.37784 35.0867 9.00856 43.9673 9.103C43.9726 10.449 43.9984 11.8379 44.0247 13.2579C44.1483 19.9256 44.2847 27.2814 42.3821 34.127C40.0522 42.5098 34.6592 50.1123 22.2931 54.5487C9.92795 50.1122 4.53552 42.5097 2.20589 34.1269C0.30354 27.2815 0.439927 19.9258 0.563554 13.2584C0.589888 11.8382 0.615642 10.4492 0.620991 9.103C9.50082 9.00855 16.4225 6.37783 22.2933 0.700388Z" fill="#F0F1FB" stroke="#C3C3C3"/>
<g clip-path="url(#clip0_2270_6224)">
<path d="M22.2945 14.6875C22.7974 14.6875 23.2053 15.0905 23.2053 15.5876V25.5366H33.2739C33.5156 25.5366 33.7474 25.6315 33.9183 25.8004C34.0893 25.9693 34.1853 26.1984 34.1853 26.4372C34.1853 26.6761 34.0893 26.9052 33.9183 27.0741C33.7474 27.243 33.5156 27.3379 33.2739 27.3379H23.2053V37.288C23.2053 37.5268 23.1093 37.7557 22.9385 37.9245C22.7677 38.0933 22.536 38.1881 22.2945 38.1881C22.0529 38.1881 21.8213 38.0933 21.6505 37.9245C21.4797 37.7557 21.3837 37.5268 21.3837 37.288L21.3825 27.3379H11.3151C11.0735 27.3379 10.8419 27.2431 10.6711 27.0743C10.5003 26.9055 10.4043 26.6765 10.4043 26.4378C10.4043 26.1991 10.5003 25.9702 10.6711 25.8014C10.8419 25.6326 11.0735 25.5377 11.3151 25.5377L21.3825 25.5366V15.5876C21.3831 15.3488 21.4795 15.1201 21.6504 14.9514C21.8213 14.7827 22.0529 14.6878 22.2945 14.6875Z" fill="#C3C3C3"/>
</g>
<defs>
<clipPath id="clip0_2270_6224">
<rect width="23.7804" height="23.5006" fill="white" transform="translate(10.4043 14.6875)"/>
</clipPath>
</defs>
</svg>
