<svg width="132" height="128" viewBox="0 0 132 128" fill="none" xmlns="http://www.w3.org/2000/svg">
<path d="M49.5562 62.1138H43.6548V56.2124C43.6548 55.4298 43.344 54.6793 42.7906 54.126C42.2372 53.5726 41.4867 53.2617 40.7041 53.2617C39.9216 53.2617 39.171 53.5726 38.6177 54.126C38.0643 54.6793 37.7534 55.4298 37.7534 56.2124L37.8582 62.1138H31.8521C31.0695 62.1138 30.319 62.4247 29.7656 62.978C29.2122 63.5314 28.9014 64.2819 28.9014 65.0645C28.9014 65.8471 29.2122 66.5976 29.7656 67.1509C30.319 67.7043 31.0695 68.0152 31.8521 68.0152L37.8582 67.9104L37.7534 73.9166C37.7534 74.6991 38.0643 75.4497 38.6177 76.003C39.171 76.5564 39.9216 76.8673 40.7041 76.8673C41.4867 76.8673 42.2372 76.5564 42.7906 76.003C43.344 75.4497 43.6548 74.6991 43.6548 73.9166V67.9104L49.5562 68.0152C50.3388 68.0152 51.0893 67.7043 51.6427 67.1509C52.196 66.5976 52.5069 65.8471 52.5069 65.0645C52.5069 64.2819 52.196 63.5314 51.6427 62.978C51.0893 62.4247 50.3388 62.1138 49.5562 62.1138Z" fill="#C3C3C3"/>
<path d="M80.5199 45.0945C82.5751 45.0945 84.5462 44.2467 85.9994 42.7375C87.4527 41.2284 88.2691 39.1815 88.2691 37.0473C88.2691 34.913 87.4527 32.8661 85.9994 31.357C84.5462 29.8478 82.5751 29 80.5199 29C78.4646 29 76.4936 29.8478 75.0403 31.357C73.587 32.8661 72.7706 34.913 72.7706 37.0473C72.7706 39.1815 73.587 41.2284 75.0403 42.7375C76.4936 44.2467 78.4646 45.0945 80.5199 45.0945ZM90.8481 48.1139H70.5574C66.7447 48.1139 63.6543 51.3231 63.6543 55.2824V71.8791C63.6543 73.6141 64.9376 75.1044 66.6052 75.1849C67.0244 75.2058 67.4432 75.1381 67.8365 74.986C68.2297 74.8338 68.589 74.6003 68.8928 74.2996C69.1965 73.9989 69.4383 73.6374 69.6035 73.2368C69.7687 72.8362 69.8538 72.405 69.8537 71.9692V57.8961C69.8537 57.4684 70.0173 57.0582 70.3086 56.7558C70.5998 56.4534 70.9948 56.2835 71.4067 56.2835C71.8186 56.2835 72.2136 56.4534 72.5048 56.7558C72.796 57.0582 72.9596 57.4684 72.9596 57.8961V96.5069C72.9596 98.2419 74.2429 99.7323 75.9106 99.8127C76.3297 99.8337 76.7486 99.766 77.1418 99.6138C77.535 99.4616 77.8944 99.2281 78.1981 98.9275C78.5019 98.6268 78.7436 98.2652 78.9088 97.8646C79.074 97.4641 79.1591 97.0328 79.1591 96.5971V77.76C79.1591 77.3332 79.3224 76.9238 79.613 76.622C79.9037 76.3201 80.2979 76.1506 80.7089 76.1506C81.12 76.1506 81.5142 76.3201 81.8049 76.622C82.0955 76.9238 82.2588 77.3332 82.2588 77.76V96.5069C82.2588 98.2419 83.5421 99.7323 85.2097 99.8127C85.6291 99.8341 86.0483 99.7668 86.4419 99.6148C86.8355 99.4628 87.1952 99.2294 87.4993 98.9287C87.8034 98.628 88.0454 98.2662 88.2108 97.8654C88.3762 97.4646 88.4614 97.0331 88.4613 96.5971V57.8897C88.4792 57.4766 88.6497 57.0865 88.9376 56.8007C89.2254 56.5149 89.6083 56.3553 90.0065 56.3553C90.4048 56.3553 90.7877 56.5149 91.0755 56.8007C91.3633 57.0865 91.5339 57.4766 91.5517 57.8897V71.9724C91.5517 72.4082 91.6368 72.8394 91.802 73.24C91.9672 73.6406 92.209 74.0022 92.5127 74.3028C92.8165 74.6035 93.1758 74.837 93.569 74.9892C93.9622 75.1413 94.3811 75.209 94.8003 75.1881C96.4679 75.1044 97.7512 73.6141 97.7512 71.8823V55.2856C97.7516 54.3438 97.5734 53.4111 97.2267 52.5409C96.88 51.6706 96.3716 50.8797 95.7306 50.2135C95.0896 49.5472 94.3285 49.0186 93.4908 48.6578C92.653 48.297 91.755 48.1143 90.8481 48.1139Z" fill="#C3C3C3"/>
</svg>
