<svg width="44" height="44" viewBox="0 0 44 44" fill="none" xmlns="http://www.w3.org/2000/svg">
<g clip-path="url(#clip0_440_22606)">
<rect width="44" height="44" rx="4" fill="#007B8C"/>
<path d="M30.5556 48.889L11.6112 34.8334L15.2778 28.7223L9.77782 25.6668L7.33337 22.0001L18.3334 18.9446L12.2223 15.889L9.77782 12.2223L11.6112 8.55566H32.3889L48.8889 19.5557V48.889H30.5556Z" fill="#323161" fill-opacity="0.5"/>
<path d="M36.6667 21.9997C36.6667 22.8244 36.3129 23.7726 35.9697 24.4981C35.6148 25.2485 34.8319 25.6663 34.0018 25.6663L10.3789 25.6663C9.351 25.6663 8.43291 25.0233 8.08163 24.0573L7.63719 22.835C7.44096 22.2954 7.44096 21.7039 7.63719 21.1643L8.08163 19.9421C8.43291 18.9761 9.351 18.333 10.3789 18.333L34.0018 18.333C34.8319 18.333 35.6148 18.7508 35.9697 19.5013C36.3129 20.2268 36.6667 21.1749 36.6667 21.9997Z" fill="white"/>
<path d="M33.9078 30.929C34.1107 31.4768 34.1107 32.0792 33.9078 32.627L33.4552 33.8492C33.1 34.8081 32.1855 35.4447 31.1629 35.4447L12.8372 35.4447C11.8146 35.4447 10.9001 34.8081 10.545 33.8492L10.0923 32.627C9.88939 32.0792 9.88939 31.4768 10.0923 30.929L10.545 29.7068C10.9001 28.7478 11.8146 28.1113 12.8372 28.1113L31.1629 28.1113C32.1855 28.1113 33.1 28.7478 33.4552 29.7068L33.9078 30.929Z" fill="white"/>
<path d="M33.9078 11.3733C34.1107 11.9212 34.1107 12.5235 33.9078 13.0713L33.4552 14.2935C33.1 15.2525 32.1855 15.889 31.1629 15.889L12.8372 15.889C11.8146 15.889 10.9001 15.2525 10.545 14.2935L10.0923 13.0713C9.88939 12.5235 9.88939 11.9211 10.0923 11.3733L10.545 10.1511C10.9001 9.19218 11.8146 8.55566 12.8372 8.55566L31.1629 8.55566C32.1855 8.55566 33.1 9.19218 33.4552 10.1511L33.9078 11.3733Z" fill="white"/>
</g>
<defs>
<clipPath id="clip0_440_22606">
<rect width="44" height="44" rx="4" fill="white"/>
</clipPath>
</defs>
</svg>
