<svg width="24" height="25" viewBox="0 0 24 25" fill="none" xmlns="http://www.w3.org/2000/svg">
<path d="M20.8125 12.3262C20.8125 12.4754 20.7532 12.6184 20.6477 12.7239C20.5423 12.8294 20.3992 12.8887 20.25 12.8887H12.5625V20.5762C12.5625 20.7254 12.5032 20.8684 12.3977 20.9739C12.2923 21.0794 12.1492 21.1387 12 21.1387C11.8508 21.1387 11.7077 21.0794 11.6023 20.9739C11.4968 20.8684 11.4375 20.7254 11.4375 20.5762V12.8887H3.75C3.60082 12.8887 3.45774 12.8294 3.35225 12.7239C3.24676 12.6184 3.1875 12.4754 3.1875 12.3262C3.1875 12.177 3.24676 12.0339 3.35225 11.9284C3.45774 11.8229 3.60082 11.7637 3.75 11.7637H11.4375V4.07617C11.4375 3.92699 11.4968 3.78391 11.6023 3.67842C11.7077 3.57294 11.8508 3.51367 12 3.51367C12.1492 3.51367 12.2923 3.57294 12.3977 3.67842C12.5032 3.78391 12.5625 3.92699 12.5625 4.07617V11.7637H20.25C20.3992 11.7637 20.5423 11.8229 20.6477 11.9284C20.7532 12.0339 20.8125 12.177 20.8125 12.3262Z" fill="#7B7A9C"/>
</svg>
