<svg width="56" height="56" viewBox="0 0 56 56" fill="none" xmlns="http://www.w3.org/2000/svg">
<path d="M28.2933 0.700388C34.1647 6.37784 41.0867 9.00856 49.9673 9.103C49.9726 10.449 49.9984 11.8379 50.0247 13.2579C50.1483 19.9256 50.2847 27.2814 48.3821 34.127C46.0522 42.5098 40.6592 50.1123 28.2931 54.5487C15.928 50.1122 10.5355 42.5097 8.20589 34.1269C6.30354 27.2815 6.43993 19.9258 6.56355 13.2584C6.58989 11.8382 6.61564 10.4492 6.62099 9.103C15.5008 9.00855 22.4225 6.37783 28.2933 0.700388Z" fill="#F0F1FB" stroke="#C3C3C3"/>
<path d="M46.8988 12.0308C39.2766 12.0308 33.4371 9.837 28.4993 5C23.562 9.837 17.7228 12.0308 10.1012 12.0308C10.1012 24.6273 7.51389 42.6718 28.4992 50C49.486 42.6719 46.8988 24.6275 46.8988 12.0308Z" fill="#52AECC"/>
<path d="M46.8988 14.5621C39.2766 14.5621 33.4371 12.5145 28.4993 8C23.562 12.5145 17.7228 14.5621 10.1012 14.5621C10.1012 26.3188 7.51389 43.1603 28.4992 50C49.486 43.1604 46.8988 26.319 46.8988 14.5621Z" fill="#56CCF2"/>
</svg>
